<svg xmlns="http://www.w3.org/2000/svg" viewBox="0 0 226 55" width="226" height="55">
	<defs>
		<clipPath clipPathUnits="userSpaceOnUse" id="cp1">
			<path d="M0 0L226 0L226 55L0 55Z" />
		</clipPath>
		<linearGradient id="grd1" gradientUnits="userSpaceOnUse"  x1="0" y1="22.114" x2="44.8" y2="22.114">
			<stop offset="0" stop-color="#5bc2b2"  />
			<stop offset="1" stop-color="#2b2f81"  />
		</linearGradient>
	</defs>
	<style>
		tspan { white-space:pre }
		.shp0 { fill: #393f6b } 
		.shp1 { fill: url(#grd1) } 
	</style>
	<g id="Page 1" clip-path="url(#cp1)">
		<path id="Path 1" fill-rule="evenodd" class="shp0" d="M102.43 22.72C110.5 22.72 116.34 28.72 116.34 36.78C116.34 37.32 116.26 38.32 116.19 38.86C116.11 39.63 115.5 40.17 114.8 40.17L92.67 40.17C92.98 45.32 97.51 50.16 102.97 50.16C106.2 50.16 108.81 48.93 110.58 47.85C111.65 47.24 112.11 46.85 112.73 47.7C113.19 48.31 113.58 48.85 114.04 49.46C114.57 50.16 114.88 50.62 113.73 51.46C111.88 52.92 107.74 55 102.43 55C93.13 55 87.37 47.7 87.37 38.86C87.37 30.18 93.13 22.72 102.43 22.72ZM111.04 35.86C110.81 31.4 107.12 27.41 102.43 27.41C97.28 27.41 93.29 31.1 92.75 35.86L111.04 35.86ZM124.79 1.9C124.79 1.13 125.48 0.44 126.25 0.44L128.63 0.44C129.4 0.44 130.09 1.13 130.09 1.9L130.09 24.72C130.09 24.72 133.25 22.72 138.32 22.72C147.54 22.72 153.07 29.79 153.07 38.78C153.07 47.62 146.92 55 139.09 55C133.32 55 129.63 50.93 129.63 50.93L129.17 53C129.02 53.69 128.56 54.23 127.86 54.23L126.25 54.23C125.48 54.23 124.79 53.54 124.79 52.77L124.79 1.9ZM138.55 50.16C144.16 50.16 147.69 44.86 147.69 38.86C147.69 32.71 144.31 27.87 137.62 27.87C133.4 27.87 130.17 29.72 130.17 29.72L130.17 45.09C130.17 45.09 133.01 50.16 138.55 50.16ZM161.76 24.95C161.76 24.18 162.45 23.49 163.21 23.49L165.6 23.49C166.37 23.49 167.06 24.18 167.06 24.95L167.06 52.77C167.06 53.54 166.37 54.23 165.6 54.23L163.21 54.23C162.45 54.23 161.76 53.54 161.76 52.77L161.76 24.95ZM160.68 5.66C160.68 3.59 162.29 1.97 164.29 1.97C166.37 1.97 167.98 3.59 167.98 5.66C167.98 7.66 166.37 9.27 164.29 9.27C162.29 9.27 160.68 7.66 160.68 5.66ZM177.97 24.95C177.97 24.18 178.66 23.49 179.43 23.49L180.89 23.49C181.58 23.49 181.97 23.8 182.12 24.41L182.81 26.8C182.81 26.8 186.42 22.72 192.8 22.72C197.34 22.72 200.64 24.49 202.64 27.72C203.02 27.41 207.94 22.72 214.09 22.72C223 22.72 226 28.56 226 36.55L226 52.77C226 53.54 225.31 54.23 224.54 54.23L222.08 54.23C221.31 54.23 220.62 53.54 220.62 52.77L220.62 36.55C220.62 30.79 218.16 27.87 213.7 27.87C208.71 27.87 205.4 31.17 204.33 32.17C204.56 33.48 204.71 34.94 204.71 36.55L204.71 52.77C204.71 53.54 204.02 54.23 203.25 54.23L200.79 54.23C200.02 54.23 199.33 53.54 199.33 52.77L199.33 36.55C199.33 30.71 196.72 27.87 192.03 27.87C186.58 27.87 183.27 32.25 183.27 32.25L183.27 52.77C183.27 53.54 182.58 54.23 181.81 54.23L179.43 54.23C178.66 54.23 177.97 53.54 177.97 52.77L177.97 24.95Z" />
		<path id="Path 2" class="shp1" d="M0.21 2.29C0.11 2.41 0.01 2.57 0 2.76L0 2.81C0 2.84 0 2.86 0.01 2.88C0.05 3.04 0.09 3.21 0.14 3.38C1.29 7.9 2.89 13.74 5.2 20.12C6.16 22.77 7.5 26.26 9.27 29.78C10.16 31.58 11.06 33.17 11.99 34.63C13.17 36.46 14.33 37.9 15.63 39.16C16.43 39.92 17.22 40.54 18.03 41.02C19.04 41.62 20.01 41.98 20.97 42.13C22.03 42.32 23.18 42.23 24.22 41.89C25.21 41.58 26.2 41.04 27.17 40.27C29.13 38.7 30.49 36.73 31.45 35.19C32.46 33.55 33.38 31.75 34.41 29.34C35.19 27.5 35.95 25.48 36.72 23.18L37.71 20.36C38.05 19.42 38.44 18.54 38.78 17.66C40.55 13.05 42.91 12.86 44.8 16C41.17 9.81 35.11 10.67 35.11 10.67C34.59 11.64 34.1 12.67 33.59 13.9C33.15 14.98 32.74 16.06 32.38 17.11L31.38 20.28C30.75 22.37 30.13 24.2 29.49 25.87C28.78 27.7 28.02 29.37 27.23 30.83C26.61 31.95 25.65 33.5 24.51 34.52C23.48 35.43 22.61 35.79 21.55 35.78C20.55 35.76 19.33 35.21 18.13 34.21C17.18 33.44 16.19 32.37 15.02 30.86C14.11 29.67 13.2 28.3 12.29 26.79C10.76 24.21 9.23 21.3 7.76 18.13C4.98 12.15 3.17 7 1.53 2.67L1.53 2.67C1.46 2.43 1.28 2.24 1.06 2.15C0.98 2.11 0.89 2.09 0.79 2.09C0.57 2.09 0.35 2.13 0.21 2.29Z" />
		<path id="Path 3" class="shp0" d="M81.92 0.25C81.04 0.25 80.3 0.86 80.03 1.71L79.94 2.16L78.97 6.96C78.66 8.54 78.29 10.24 77.93 11.91L77.75 12.76C76.89 16.7 75.95 20.7 74.97 24.65C73.92 28.87 72.77 32.87 71.56 36.51C70.86 38.62 70.14 40.48 69.42 42.06C69.03 42.93 68.63 43.76 68.18 44.48C67.73 45.19 66.23 48.35 63.98 44.81C63.59 44.19 63.14 43.44 62.65 42.49C60.87 38.95 59.26 34.67 57.89 30.94L56.88 28.16C55.84 25.29 54.76 22.33 53.57 19.37C53.45 19.07 53.34 18.77 53.21 18.47C52.45 16.61 51.5 14.41 50.32 12.19C49.67 10.97 49.07 9.97 48.43 9.07C47.76 8.13 46.93 7.04 45.66 6.09C44.97 5.58 44.29 5.23 43.59 5.02C42.8 4.78 41.89 4.75 41.12 4.92C40.36 5.08 39.62 5.42 38.89 5.93C38.23 6.4 37.72 6.93 37.26 7.44C36.29 8.57 35.63 9.71 35.11 10.67C35.11 10.67 41.17 9.81 44.8 16C44.84 16.06 44.88 16.13 44.92 16.2C45.03 16.39 45.14 16.59 45.24 16.8C45.97 18.29 46.8 20.01 47.72 22.29C48.82 25.04 49.85 27.84 50.95 30.81C51.39 32.02 51.84 33.24 52.3 34.46C52.99 36.33 53.83 38.54 54.73 40.74C55.43 42.46 56.4 44.73 57.62 47.01C58.08 47.87 58.72 48.99 59.51 50.13C60.16 51.06 61 52.14 62.2 53.12C62.85 53.63 63.5 54 64.17 54.25C64.95 54.54 65.8 54.64 66.58 54.53C67.55 54.41 68.34 54.01 68.84 53.7C69.47 53.3 70.05 52.8 70.54 52.27C71.58 51.16 72.26 50.01 72.82 49.03C73.38 48.02 73.89 46.96 74.38 45.79C75.18 43.86 75.91 41.8 76.66 39.32C77.99 34.93 78.97 30.61 79.82 26.6C80.59 22.98 81.33 19.06 82.13 14.24L82.3 13.25C82.57 11.57 82.85 9.93 83.09 8.22L83.82 3.07L83.92 2.37C83.92 2.36 83.92 2.35 83.93 2.33C83.89 1.18 83.01 0.25 81.92 0.25Z" />
	</g>
</svg>