<svg xmlns="http://www.w3.org/2000/svg" width="226" height="55"><defs><linearGradient id="grd1" gradientUnits="userSpaceOnUse" x1="0" y1="22.114" x2="44.8" y2="22.114"><stop offset="0" stop-color="#5bc2b2"/><stop offset="1" stop-color="#2b2f81"/></linearGradient><clipPath clipPathUnits="userSpaceOnUse" id="cp1"><path d="M0 0h226v55H0z"/></clipPath></defs><style>.shp0{fill:#393f6b}</style><g id="Page 1" clip-path="url(#cp1)"><path id="Path 1" fill-rule="evenodd" class="shp0" d="M102.43 22.72c8.07 0 13.91 6 13.91 14.06 0 .54-.08 1.54-.15 2.08-.08.77-.69 1.31-1.39 1.31H92.67c.31 5.15 4.84 9.99 10.3 9.99 3.23 0 5.84-1.23 7.61-2.31 1.07-.61 1.53-1 2.15-.15.46.61.85 1.15 1.31 1.76.53.7.84 1.16-.31 2-1.85 1.46-5.99 3.54-11.3 3.54-9.3 0-15.06-7.3-15.06-16.14 0-8.68 5.76-16.14 15.06-16.14zm8.61 13.14c-.23-4.46-3.92-8.45-8.61-8.45-5.15 0-9.14 3.69-9.68 8.45h18.29zM124.79 1.9c0-.77.69-1.46 1.46-1.46h2.38c.77 0 1.46.69 1.46 1.46v22.82s3.16-2 8.23-2c9.22 0 14.75 7.07 14.75 16.06 0 8.84-6.15 16.22-13.98 16.22-5.77 0-9.46-4.07-9.46-4.07l-.46 2.07c-.15.69-.61 1.23-1.31 1.23h-1.61c-.77 0-1.46-.69-1.46-1.46V1.9zm13.76 48.26c5.61 0 9.14-5.3 9.14-11.3 0-6.15-3.38-10.99-10.07-10.99-4.22 0-7.45 1.85-7.45 1.85v15.37s2.84 5.07 8.38 5.07zm23.21-25.21c0-.77.69-1.46 1.45-1.46h2.39c.77 0 1.46.69 1.46 1.46v27.82c0 .77-.69 1.46-1.46 1.46h-2.39c-.76 0-1.45-.69-1.45-1.46V24.95zm-1.08-19.29c0-2.07 1.61-3.69 3.61-3.69 2.08 0 3.69 1.62 3.69 3.69 0 2-1.61 3.61-3.69 3.61-2 0-3.61-1.61-3.61-3.61zm17.29 19.29c0-.77.69-1.46 1.46-1.46h1.46c.69 0 1.08.31 1.23.92l.69 2.39s3.61-4.08 9.99-4.08c4.54 0 7.84 1.77 9.84 5 .38-.31 5.3-5 11.45-5 8.91 0 11.91 5.84 11.91 13.83v16.22c0 .77-.69 1.46-1.46 1.46h-2.46c-.77 0-1.46-.69-1.46-1.46V36.55c0-5.76-2.46-8.68-6.92-8.68-4.99 0-8.3 3.3-9.37 4.3.23 1.31.38 2.77.38 4.38v16.22c0 .77-.69 1.46-1.46 1.46h-2.46c-.77 0-1.46-.69-1.46-1.46V36.55c0-5.84-2.61-8.68-7.3-8.68-5.45 0-8.76 4.38-8.76 4.38v20.52c0 .77-.69 1.46-1.46 1.46h-2.38c-.77 0-1.46-.69-1.46-1.46V24.95z"/><path id="Path 2" d="M.21 2.29c-.1.12-.2.28-.21.47v.05c0 .03 0 .05.01.07.04.16.08.33.13.5C1.29 7.9 2.89 13.74 5.2 20.12c.96 2.65 2.3 6.14 4.07 9.66.89 1.8 1.79 3.39 2.72 4.85 1.18 1.83 2.34 3.27 3.64 4.53.8.76 1.59 1.38 2.4 1.86 1.01.6 1.98.96 2.94 1.11 1.06.19 2.21.1 3.25-.24.99-.31 1.98-.85 2.95-1.62 1.96-1.57 3.32-3.54 4.28-5.08 1.01-1.64 1.93-3.44 2.96-5.85a84.26 84.26 0 002.31-6.16l.99-2.82c.34-.94.73-1.82 1.07-2.7 1.77-4.61 4.13-4.8 6.02-1.66-3.63-6.19-9.69-5.33-9.69-5.33-.52.97-1.01 2-1.52 3.23-.44 1.08-.85 2.16-1.21 3.21l-1 3.17c-.63 2.09-1.25 3.92-1.89 5.59-.71 1.83-1.47 3.5-2.26 4.96-.62 1.12-1.58 2.67-2.72 3.69-1.03.91-1.9 1.27-2.96 1.26-1-.02-2.22-.57-3.42-1.57-.95-.77-1.94-1.84-3.11-3.35-.91-1.19-1.82-2.56-2.73-4.07-1.53-2.58-3.06-5.49-4.53-8.66C4.98 12.15 3.17 7 1.53 2.67a.813.813 0 00-.47-.52.595.595 0 00-.27-.06c-.22 0-.44.04-.58.2z" fill="url(#grd1)"/><path id="Path 3" class="shp0" d="M81.92.25c-.88 0-1.62.61-1.89 1.46l-.09.45-.97 4.8c-.31 1.58-.68 3.28-1.04 4.95l-.18.85c-.86 3.94-1.8 7.94-2.78 11.89-1.05 4.22-2.2 8.22-3.41 11.86-.7 2.11-1.42 3.97-2.14 5.55-.39.87-.79 1.7-1.24 2.42-.45.71-1.95 3.87-4.2.33-.39-.62-.84-1.37-1.33-2.32-1.78-3.54-3.39-7.82-4.76-11.55l-1.01-2.78c-1.04-2.87-2.12-5.83-3.31-8.79-.12-.3-.23-.6-.36-.9-.76-1.86-1.71-4.06-2.89-6.28-.65-1.22-1.25-2.22-1.89-3.12-.67-.94-1.5-2.03-2.77-2.98-.69-.51-1.37-.86-2.07-1.07-.79-.24-1.7-.27-2.47-.1-.76.16-1.5.5-2.23 1.01-.66.47-1.17 1-1.63 1.51-.97 1.13-1.63 2.27-2.15 3.23 0 0 6.06-.86 9.69 5.33a8.454 8.454 0 01.44.8c.73 1.49 1.56 3.21 2.48 5.49 1.1 2.75 2.13 5.55 3.23 8.52.44 1.21.89 2.43 1.35 3.65.69 1.87 1.53 4.08 2.43 6.28.7 1.72 1.67 3.99 2.89 6.27.46.86 1.1 1.98 1.89 3.12.65.93 1.49 2.01 2.69 2.99.65.51 1.3.88 1.97 1.13.78.29 1.63.39 2.41.28.97-.12 1.76-.52 2.26-.83.63-.4 1.21-.9 1.7-1.43 1.04-1.11 1.72-2.26 2.28-3.24.56-1.01 1.07-2.07 1.56-3.24.8-1.93 1.53-3.99 2.28-6.47 1.33-4.39 2.31-8.71 3.16-12.72.77-3.62 1.51-7.54 2.31-12.36l.17-.99c.27-1.68.55-3.32.79-5.03l.73-5.15.1-.7c0-.01 0-.02.01-.04-.04-1.15-.92-2.08-2.01-2.08z"/></g></svg>